<svg width="102" height="32" viewBox="0 0 102 32" fill="none" xmlns="http://www.w3.org/2000/svg">
<path d="M7.10004 15.3205C5.87337 15.3205 4.82004 15.1138 3.94004 14.7005C3.06004 14.2872 2.37337 13.7072 1.88004 12.9605C1.38671 12.2138 1.10671 11.3338 1.04004 10.3205L4.10004 10.1805C4.18004 10.7405 4.34004 11.2205 4.58004 11.6205C4.83337 12.0072 5.16671 12.3005 5.58004 12.5005C6.00671 12.7005 6.52671 12.8005 7.14004 12.8005C7.64671 12.8005 8.07337 12.7405 8.42004 12.6205C8.78004 12.5005 9.05337 12.3205 9.24004 12.0805C9.42671 11.8272 9.52004 11.5205 9.52004 11.1605C9.52004 10.8272 9.44004 10.5405 9.28004 10.3005C9.12004 10.0472 8.81337 9.82047 8.36004 9.62047C7.90671 9.40714 7.24004 9.20047 6.36004 9.00047C5.14671 8.72047 4.16671 8.40714 3.42004 8.06047C2.68671 7.7138 2.15337 7.28047 1.82004 6.76047C1.48671 6.22714 1.32004 5.56047 1.32004 4.76047C1.32004 3.90714 1.52671 3.16047 1.94004 2.52047C2.36671 1.88047 2.98004 1.38047 3.78004 1.02047C4.58004 0.660468 5.53337 0.480469 6.64004 0.480469C7.81337 0.480469 8.80671 0.687135 9.62004 1.10047C10.4333 1.5138 11.0667 2.08047 11.52 2.80047C11.9867 3.52047 12.2667 4.34714 12.36 5.28047L9.32004 5.44047C9.28004 4.94714 9.14671 4.52047 8.92004 4.16047C8.69337 3.78714 8.38671 3.50047 8.00004 3.30047C7.61337 3.10047 7.14671 3.00047 6.60004 3.00047C5.90671 3.00047 5.36004 3.1538 4.96004 3.46047C4.57337 3.76714 4.38004 4.16714 4.38004 4.66047C4.38004 5.00714 4.46671 5.30047 4.64004 5.54047C4.82671 5.76714 5.12671 5.96714 5.54004 6.14047C5.96671 6.3138 6.56671 6.48047 7.34004 6.64047C8.66004 6.90714 9.70004 7.24714 10.46 7.66047C11.2333 8.06047 11.78 8.54047 12.1 9.10047C12.42 9.66047 12.58 10.3005 12.58 11.0205C12.58 11.9005 12.3533 12.6672 11.9 13.3205C11.46 13.9605 10.8267 14.4538 10 14.8005C9.18671 15.1472 8.22004 15.3205 7.10004 15.3205ZM12.7134 15.0005L17.8334 0.800468H21.4334L26.5534 15.0005H23.3934L22.3534 11.9805H16.8934L15.8534 15.0005H12.7134ZM17.7534 9.48047H21.5134L19.6334 4.00047L17.7534 9.48047ZM27.475 15.0005V0.800468H31.535L35.155 11.1405L38.755 0.800468H42.815V15.0005H39.775V5.80047L36.435 14.9605H33.835L30.515 5.80047V15.0005H27.475ZM51.1888 15.3205C49.9888 15.3205 48.9488 15.1005 48.0688 14.6605C47.2021 14.2205 46.5288 13.5938 46.0488 12.7805C45.5688 11.9538 45.3288 10.9872 45.3288 9.88047V0.780468H48.3688V9.88047C48.3688 10.8005 48.6088 11.5138 49.0888 12.0205C49.5821 12.5138 50.2821 12.7605 51.1888 12.7605C52.0954 12.7605 52.7888 12.5138 53.2688 12.0205C53.7488 11.5138 53.9888 10.8005 53.9888 9.88047V0.780468H57.0288V9.88047C57.0288 10.9872 56.7888 11.9538 56.3088 12.7805C55.8421 13.5938 55.1688 14.2205 54.2888 14.6605C53.4088 15.1005 52.3754 15.3205 51.1888 15.3205ZM59.5442 15.0005V0.800468H69.4242V3.36047H62.5842V6.62047H69.1842V9.14047H62.5842V12.4405H69.5842V15.0005H59.5442ZM71.5456 15.0005V0.800468H74.5856V14.1805L72.9056 12.4405H81.1256V15.0005H71.5456ZM1.48004 31.0005V16.8005H4.84004L10.48 26.6005V16.8005H13.52V31.0005H10.12L4.52004 21.5405V31.0005H1.48004ZM18.6322 31.0005L14.7922 16.8005H17.9722L20.4122 26.8005L22.8722 16.8005H25.5322L28.0122 26.8005L30.4322 16.8005H33.6122L29.7922 31.0005H26.5122L24.1922 21.9205L21.8722 31.0005H18.6322ZM40.7081 31.3205C39.2681 31.3205 38.0281 31.0205 36.9881 30.4205C35.9615 29.8205 35.1681 28.9672 34.6081 27.8605C34.0615 26.7538 33.7881 25.4405 33.7881 23.9205C33.7881 22.4005 34.0615 21.0872 34.6081 19.9805C35.1681 18.8605 35.9615 18.0005 36.9881 17.4005C38.0281 16.7872 39.2681 16.4805 40.7081 16.4805C42.1481 16.4805 43.3815 16.7872 44.4081 17.4005C45.4481 18.0005 46.2415 18.8605 46.7881 19.9805C47.3481 21.0872 47.6281 22.4005 47.6281 23.9205C47.6281 25.4405 47.3481 26.7538 46.7881 27.8605C46.2415 28.9672 45.4481 29.8205 44.4081 30.4205C43.3815 31.0205 42.1481 31.3205 40.7081 31.3205ZM40.6881 28.7605C41.4881 28.7605 42.1681 28.5738 42.7281 28.2005C43.3015 27.8138 43.7348 27.2605 44.0281 26.5405C44.3348 25.8205 44.4881 24.9472 44.4881 23.9205C44.4881 22.8938 44.3348 22.0205 44.0281 21.3005C43.7348 20.5672 43.3015 20.0072 42.7281 19.6205C42.1681 19.2338 41.4881 19.0405 40.6881 19.0405C39.9015 19.0405 39.2281 19.2338 38.6681 19.6205C38.1081 20.0072 37.6748 20.5672 37.3681 21.3005C37.0748 22.0205 36.9281 22.8938 36.9281 23.9205C36.9281 24.9472 37.0748 25.8205 37.3681 26.5405C37.6748 27.2605 38.1081 27.8138 38.6681 28.2005C39.2415 28.5738 39.9148 28.7605 40.6881 28.7605ZM49.242 31.0005V16.8005H52.282V23.0005L57.442 16.8005H60.982L55.762 23.0605L61.302 31.0005H57.842L53.762 25.1005L52.282 26.8205V31.0005H49.242ZM68.0703 31.3205C66.6303 31.3205 65.3903 31.0205 64.3503 30.4205C63.3236 29.8205 62.5303 28.9672 61.9703 27.8605C61.4236 26.7538 61.1503 25.4405 61.1503 23.9205C61.1503 22.4005 61.4236 21.0872 61.9703 19.9805C62.5303 18.8605 63.3236 18.0005 64.3503 17.4005C65.3903 16.7872 66.6303 16.4805 68.0703 16.4805C69.5103 16.4805 70.7436 16.7872 71.7703 17.4005C72.8103 18.0005 73.6036 18.8605 74.1503 19.9805C74.7103 21.0872 74.9903 22.4005 74.9903 23.9205C74.9903 25.4405 74.7103 26.7538 74.1503 27.8605C73.6036 28.9672 72.8103 29.8205 71.7703 30.4205C70.7436 31.0205 69.5103 31.3205 68.0703 31.3205ZM68.0503 28.7605C68.8503 28.7605 69.5303 28.5738 70.0903 28.2005C70.6636 27.8138 71.097 27.2605 71.3903 26.5405C71.697 25.8205 71.8503 24.9472 71.8503 23.9205C71.8503 22.8938 71.697 22.0205 71.3903 21.3005C71.097 20.5672 70.6636 20.0072 70.0903 19.6205C69.5303 19.2338 68.8503 19.0405 68.0503 19.0405C67.2636 19.0405 66.5903 19.2338 66.0303 19.6205C65.4703 20.0072 65.037 20.5672 64.7303 21.3005C64.437 22.0205 64.2903 22.8938 64.2903 23.9205C64.2903 24.9472 64.437 25.8205 64.7303 26.5405C65.037 27.2605 65.4703 27.8138 66.0303 28.2005C66.6036 28.5738 67.277 28.7605 68.0503 28.7605ZM76.6042 31.0005V16.8005H79.6442V30.1805L77.9642 28.4405H86.1842V31.0005H76.6042ZM93.3427 31.3205C91.9027 31.3205 90.6627 31.0205 89.6227 30.4205C88.596 29.8205 87.8027 28.9672 87.2427 27.8605C86.696 26.7538 86.4227 25.4405 86.4227 23.9205C86.4227 22.4005 86.696 21.0872 87.2427 19.9805C87.8027 18.8605 88.596 18.0005 89.6227 17.4005C90.6627 16.7872 91.9027 16.4805 93.3427 16.4805C94.7827 16.4805 96.016 16.7872 97.0427 17.4005C98.0827 18.0005 98.876 18.8605 99.4227 19.9805C99.9827 21.0872 100.263 22.4005 100.263 23.9205C100.263 25.4405 99.9827 26.7538 99.4227 27.8605C98.876 28.9672 98.0827 29.8205 97.0427 30.4205C96.016 31.0205 94.7827 31.3205 93.3427 31.3205ZM93.3227 28.7605C94.1227 28.7605 94.8027 28.5738 95.3627 28.2005C95.936 27.8138 96.3693 27.2605 96.6627 26.5405C96.9693 25.8205 97.1227 24.9472 97.1227 23.9205C97.1227 22.8938 96.9693 22.0205 96.6627 21.3005C96.3693 20.5672 95.936 20.0072 95.3627 19.6205C94.8027 19.2338 94.1227 19.0405 93.3227 19.0405C92.536 19.0405 91.8627 19.2338 91.3027 19.6205C90.7427 20.0072 90.3093 20.5672 90.0027 21.3005C89.7093 22.0205 89.5627 22.8938 89.5627 23.9205C89.5627 24.9472 89.7093 25.8205 90.0027 26.5405C90.3093 27.2605 90.7427 27.8138 91.3027 28.2005C91.876 28.5738 92.5493 28.7605 93.3227 28.7605Z" fill="white"/>
</svg>
