<svg width="187" height="40" viewBox="0 0 187 40" fill="none" xmlns="http://www.w3.org/2000/svg">
<path d="M40.88 17.66L40.8 17.74C39.88 17.34 39.14 16.78 38.58 16.04C38.02 15.3 37.68 14.42 37.54 13.4H40.84C40.94 14.18 41.28 14.78 41.86 15.2C42.44 15.62 43.16 15.82 44.02 15.82C44.72 15.82 45.32 15.74 45.82 15.58C46.32 15.42 46.7 15.2 46.96 14.9C47.22 14.6 47.36 14.26 47.36 13.86C47.36 13.48 47.26 13.16 47.04 12.92C46.82 12.68 46.5 12.48 46.08 12.32C45.66 12.16 45.08 12 44.32 11.82L42.16 11.34C40.82 11.06 39.78 10.58 39.04 9.88C38.3 9.18 37.94 8.26 37.94 7.12C37.94 6.26 38.2 5.48 38.72 4.8C39.24 4.12 39.94 3.58 40.84 3.2C41.74 2.82 42.74 2.62 43.84 2.62C45.06 2.62 46.12 2.8 47.02 3.16C47.92 3.52 48.62 4.02 49.14 4.66C49.66 5.3 50 6.06 50.14 6.92H46.84C46.64 6.3 46.28 5.84 45.78 5.54C45.28 5.24 44.64 5.1 43.86 5.1C43.36 5.1 42.9 5.16 42.48 5.3C42.06 5.44 41.72 5.64 41.48 5.9C41.24 6.16 41.12 6.46 41.12 6.8C41.12 7.16 41.22 7.44 41.42 7.66C41.62 7.88 41.92 8.06 42.32 8.22C42.72 8.38 43.3 8.54 44.06 8.72L46.22 9.2C47.68 9.52 48.78 10.02 49.5 10.7C50.22 11.38 50.58 12.32 50.58 13.5C50.58 14.48 50.3 15.34 49.76 16.06C49.22 16.78 48.46 17.32 47.46 17.7C46.46 18.08 45.3 18.26 43.98 18.26C42.84 18.26 41.8 18.06 40.88 17.66ZM66.5997 18H63.2797L61.9797 13.9H55.3397L54.0397 18H50.7197L55.7597 2.8H61.5597L66.5997 18ZM58.6597 3.44L56.1797 11.26H61.1397L58.6597 3.44ZM86.2995 2.8V18H83.1595V3.32L79.8195 18H74.1995L70.8795 3.42V18H67.7195V2.8H73.8395L77.0195 17.5L80.1795 2.8H86.2995ZM88.8578 11.94L88.8378 11.92V2.82H91.9978V12.2V12.24C91.9978 13.42 92.2778 14.3 92.8178 14.88C93.3578 15.46 94.1578 15.76 95.1978 15.76C96.2378 15.76 97.0178 15.46 97.5578 14.86C98.0978 14.26 98.3578 13.36 98.3578 12.18V2.8H101.518V11.9C101.518 16.12 99.4178 18.24 95.1978 18.24C90.9778 18.24 88.8578 16.14 88.8578 11.94ZM107.246 11.52V15.36H114.726V18H104.086V2.8H114.546V5.44H107.246V8.88H114.406V11.52H107.246ZM120.048 2.8V15.36H126.628V18H116.888V2.8H120.048ZM49.7 37.48V22.8H52.84V38H46.74L41.72 23.32V38H38.58V22.8H44.7L49.7 37.48ZM70.6219 37.44L73.4619 22.8H76.5219L73.4819 38H67.6619L65.4419 23.46L63.2219 38H57.4019L54.3619 22.8H57.4219L60.2619 37.44L62.5619 22.8H68.3219L70.6219 37.44ZM80.8139 37.28C79.6539 36.64 78.7539 35.72 78.1139 34.54C77.4739 33.36 77.1539 31.98 77.1539 30.4C77.1539 28.82 77.4739 27.44 78.1139 26.26C78.7539 25.08 79.6539 24.16 80.8139 23.52C81.9739 22.88 83.2939 22.56 84.7739 22.56C86.2539 22.56 87.5739 22.88 88.7339 23.52C89.8939 24.16 90.7939 25.08 91.4339 26.26C92.0739 27.44 92.3939 28.82 92.3939 30.4C92.3939 31.98 92.0739 33.36 91.4339 34.54C90.7939 35.72 89.8939 36.64 88.7339 37.28C87.5739 37.92 86.2539 38.24 84.7739 38.24C83.2939 38.24 81.9739 37.92 80.8139 37.28ZM87.0339 35.1C87.6939 34.66 88.1939 34.04 88.5539 33.24C88.9139 32.44 89.0939 31.5 89.0939 30.44C89.0939 29.38 88.9139 28.44 88.5539 27.64C88.1939 26.84 87.6939 26.22 87.0339 25.78C86.3739 25.34 85.6139 25.12 84.7539 25.12C83.8939 25.12 83.1339 25.34 82.4739 25.78C81.8139 26.22 81.3139 26.84 80.9539 27.64C80.5939 28.44 80.4139 29.38 80.4139 30.44C80.4139 31.5 80.5939 32.44 80.9539 33.24C81.3139 34.04 81.8139 34.66 82.4739 35.1C83.1339 35.54 83.8939 35.76 84.7539 35.76C85.6139 35.76 86.3739 35.54 87.0339 35.1ZM100.991 30.02L107.691 38H103.711L97.4708 30.46V38H94.3108V22.8H97.4708V29.64L103.151 22.8H107.011L100.991 30.02ZM110.266 37.28C109.106 36.64 108.206 35.72 107.566 34.54C106.926 33.36 106.606 31.98 106.606 30.4C106.606 28.82 106.926 27.44 107.566 26.26C108.206 25.08 109.106 24.16 110.266 23.52C111.426 22.88 112.746 22.56 114.226 22.56C115.706 22.56 117.026 22.88 118.186 23.52C119.346 24.16 120.246 25.08 120.886 26.26C121.526 27.44 121.846 28.82 121.846 30.4C121.846 31.98 121.526 33.36 120.886 34.54C120.246 35.72 119.346 36.64 118.186 37.28C117.026 37.92 115.706 38.24 114.226 38.24C112.746 38.24 111.426 37.92 110.266 37.28ZM116.486 35.1C117.146 34.66 117.646 34.04 118.006 33.24C118.366 32.44 118.546 31.5 118.546 30.44C118.546 29.38 118.366 28.44 118.006 27.64C117.646 26.84 117.146 26.22 116.486 25.78C115.826 25.34 115.066 25.12 114.206 25.12C113.346 25.12 112.586 25.34 111.926 25.78C111.266 26.22 110.766 26.84 110.406 27.64C110.046 28.44 109.866 29.38 109.866 30.44C109.866 31.5 110.046 32.44 110.406 33.24C110.766 34.04 111.266 34.66 111.926 35.1C112.586 35.54 113.346 35.76 114.206 35.76C115.066 35.76 115.826 35.54 116.486 35.1ZM126.923 22.8V35.36H133.503V38H123.763V22.8H126.923ZM137.062 37.28C135.902 36.64 135.002 35.72 134.362 34.54C133.722 33.36 133.402 31.98 133.402 30.4C133.402 28.82 133.722 27.44 134.362 26.26C135.002 25.08 135.902 24.16 137.062 23.52C138.222 22.88 139.542 22.56 141.022 22.56C142.502 22.56 143.822 22.88 144.982 23.52C146.142 24.16 147.042 25.08 147.682 26.26C148.322 27.44 148.642 28.82 148.642 30.4C148.642 31.98 148.322 33.36 147.682 34.54C147.042 35.72 146.142 36.64 144.982 37.28C143.822 37.92 142.502 38.24 141.022 38.24C139.542 38.24 138.222 37.92 137.062 37.28ZM143.282 35.1C143.942 34.66 144.442 34.04 144.802 33.24C145.162 32.44 145.342 31.5 145.342 30.44C145.342 29.38 145.162 28.44 144.802 27.64C144.442 26.84 143.942 26.22 143.282 25.78C142.622 25.34 141.862 25.12 141.002 25.12C140.142 25.12 139.382 25.34 138.722 25.78C138.062 26.22 137.562 26.84 137.202 27.64C136.842 28.44 136.662 29.38 136.662 30.44C136.662 31.5 136.842 32.44 137.202 33.24C137.562 34.04 138.062 34.66 138.722 35.1C139.382 35.54 140.142 35.76 141.002 35.76C141.862 35.76 142.622 35.54 143.282 35.1Z" fill="white"/>
</svg>
